<svg id="Layer_1" enable-background="new 0 0 512 512" height="512" viewBox="0 0 512 512" width="512" xmlns="http://www.w3.org/2000/svg"><path d="m504 496h-64.574c-2.809-10.013-10.762-18.03-21.252-20.651l-13.605-3.403 18.396-89.218c3.806-18.482-7.131-36.623-24.128-42.335-45.72-15.866-24.333-6.689-78.606-19.855-5.718-12.781.021-29.608 5.13-44.576 7.265-21.282 17.053-43.601-36.392-83.281 14.374-1.983 25.471-14.103 25.471-28.72v-36.78c0-23.141-18.169-42.716-42.033-44.618v-57.319c0-13.858-11.126-25.244-24.816-25.244-24.451 0-32.371 32.813-16.811 32.813 4.418 0 8-3.582 8-8 0-5.019 4.131-8.901 8.886-8.813 4.82.038 8.741 4.185 8.741 9.244v167.705c0 7.073 8.519 10.625 13.56 5.745 18.815 13.317 45.283 32.757 45.283 53.105 0 14.684-24.509 51.717-7.228 79.828.916 1.489 2.336 2.685 4.008 3.312 1.363.512 24.315 6.181 43.653 9.509 9.986 1.719 13.021 2.454 38.019 11.098 9.855 3.429 15.699 13.727 13.594 23.95l-8.421 40.842h-19.825l3.425-30.017c.508-4.456-2.751-8.468-7.226-8.874-42.539-3.859-54.72-3.143-77.425-3.143-8.162 0-23.52-4.292-29.738-7.512-14.939-7.733-18.905-29.204-15.233-43.024 28.468 3.558 26.439 3.331 27.159 3.331 3.976 0 7.422-2.961 7.928-7.009.548-4.384-2.563-8.382-6.946-8.931l-26.036-3.253c-.535-5.705-1.386-14.772-2.381-25.338-.415-4.399-4.321-7.63-8.715-7.215-4.399.415-7.629 4.316-7.215 8.715 1.096 11.636 2.017 21.449 2.533 26.957-20.197 13.311-12.004 7.089-103.749 84.212l-52.928 35.312c-9.749 6.504-13.601 18.679-9.366 29.607 11.464 29.59 10.85 28.472 12.886 31.844h-78.023c-4.418 0-8 3.582-8 8s3.582 8 8 8h496c4.418 0 8-3.582 8-8s-3.582-8-8-8zm-205.56-332.04c0 7.174-6.11 13.01-13.62 13.01-4.239 0-8.394-.562-12.413-1.65 0-41.67-.276-37.445.643-37.587 9.69-1.496 18.464-5.75 25.358-11.881.046.965.032-1.624.032 38.108zm-6.434-54.639c-4.585 6.015-11.386 10.51-19.451 12.238-.223.048-.149 1.774-.149-22.921 7.921.964 14.859 4.903 19.6 10.683zm73.64 287.346c-9.572 83.899-7.106 67.716-11.303 84.5-1.253 5.013-.916 10.156.871 14.832h-224.649l-5.579-32.06 31.353-19.968c49.537-26.059 88.377-40.544 116.171-54.351 27.829 8.723 25.545 1.343 93.136 7.047zm-130.066-59.914c-.328 16.189 5.828 33.694 18.534 43.919-24.789 11.432-57.594 24.615-97.532 45.139l-6.855-17.689c62.825-52.825 76.106-64.29 85.853-71.369zm-137.211 148.242-10.314-26.618c-1.504-3.881-.136-8.206 3.327-10.516l44.961-29.997 6.178 15.94-30.628 19.506c-2.724 1.735-4.138 4.938-3.584 8.119l6.015 34.571c-6.596 0-13.25-4.025-15.955-11.005zm280.047 11.005c-5.73 0-9.943-5.383-8.55-10.951 4.352-17.408 2.499-6.123 7.358-48.71h18.352l-8.225 39.89c-.866 4.2 1.733 8.336 5.894 9.376 20.96 5.243 24.841 5.139 28.689 10.395z"/><path d="m222.78 137.973v54.978c0 6.153 2.269 12.002 6.307 16.513.403 3.963.921 9.238 1.522 15.376.429 4.383 4.329 7.614 8.741 7.183 4.397-.431 7.613-4.344 7.183-8.741-1.871-19.11-1.505-20.522-4.127-23.142-.861-.86-3.625-2.843-3.625-7.188 0-23.193 0-86.459 0-109.194 0-30.29 1.979-35.061-19.153-56.192-3.124-3.124-8.189-3.124-11.313 0-3.125 3.124-3.125 8.189 0 11.313 15.488 15.488 14.466 16.479 14.466 36.97-8.689 1.589-16.233 7.619-19.276 16.245-4.328 12.291-8.897 20.63-3.464 31.778 4.398 9.025 13.482 14.086 22.739 14.101zm-8.734-27.646c4.634-13.16 4.691-15.57 8.734-17.765v29.394c-6.313-.012-10.75-5.919-8.734-11.629z"/><path d="m240.284 248.034c-4.26.727-7.413 4.797-6.487 9.571.839 4.32 5.021 7.172 9.378 6.329 4.125-.801 7.139-4.732 6.341-9.36-.744-4.356-4.883-7.288-9.232-6.54z"/></svg>